<svg version="1.1" xmlns="http://www.w3.org/2000/svg" viewBox="0 0 1294.976927521544 600.3435416360553" width="3884.930782564632" height="1801.030624908166" filter="invert(93%) hue-rotate(180deg)">
  <!-- svg-source:excalidraw -->
  
  <defs>
    <style class="style-fonts">
      @font-face {
        font-family: "Virgil";
        src: url("https://excalidraw.com/Virgil.woff2");
      }
      @font-face {
        font-family: "Cascadia";
        src: url("https://excalidraw.com/Cascadia.woff2");
      }
      @font-face {
        font-family: "Assistant";
        src: url("https://excalidraw.com/Assistant-Regular.woff2");
      }
    </style>
    
  </defs>
  <rect x="0" y="0" width="1294.976927521544" height="600.3435416360553" fill="#ffffff"></rect><g stroke-linecap="round" transform="translate(97.44426142342854 423.40794355892103) rotate(0 179.94189613122035 41.93040554364961)"><path d="M0 0 C111.32 -1.33, 224.82 -0.99, 359.88 0 M0 0 C137.71 -1.01, 276.43 -1.74, 359.88 0 M359.88 0 C359.69 23.07, 359.61 49.96, 359.88 83.86 M359.88 0 C360.59 31.67, 359.96 63.62, 359.88 83.86 M359.88 83.86 C226.22 81.28, 92.87 82.29, 0 83.86 M359.88 83.86 C245.03 83.99, 129.5 83.72, 0 83.86 M0 83.86 C-0.23 61.71, -1.26 43.89, 0 0 M0 83.86 C1.57 59.01, 0.36 34.26, 0 0" stroke="#1971c2" stroke-width="1" fill="none"></path></g><g stroke-linecap="round" transform="translate(112.14263106052385 444.57002964796084) rotate(0 34.81423871631341 20.446822168181825)"><path d="M0 0 C23.63 -0.21, 47.09 0.33, 69.63 0 M0 0 C25.99 -0.86, 51.73 -1.34, 69.63 0 M69.63 0 C69.98 14.72, 71.36 29.57, 69.63 40.89 M69.63 0 C69.51 12.77, 70.48 27.57, 69.63 40.89 M69.63 40.89 C52.33 40.05, 37.01 39.83, 0 40.89 M69.63 40.89 C48.75 41.44, 28.72 40.47, 0 40.89 M0 40.89 C-1.76 27.69, 0.11 10.77, 0 0 M0 40.89 C-0.66 29.31, -0.94 18.45, 0 0" stroke="#e03131" stroke-width="1" fill="none"></path></g><g transform="translate(119.59687679588023 455.01685181614266) rotate(0 27.35999298095703 10)"><text x="27.35999298095703" y="14.016" font-family="Virgil, Segoe UI Emoji" font-size="16px" fill="#e03131" text-anchor="middle" style="white-space: pre;" direction="ltr" dominant-baseline="alphabetic">event 1</text></g><g stroke-linecap="round" transform="translate(193.3051613510106 443.24554187760987) rotate(0 38.50972848710808 21.594834991488824)"><path d="M0 0 C22.15 -1.47, 43.41 0.24, 77.02 0 M0 0 C22.31 0.68, 42.72 0.64, 77.02 0 M77.02 0 C77.93 14.44, 76.47 26.87, 77.02 43.19 M77.02 0 C76.69 9.88, 76.42 20, 77.02 43.19 M77.02 43.19 C54.53 43.39, 33.61 41.62, 0 43.19 M77.02 43.19 C53.29 42.1, 27.75 41.58, 0 43.19 M0 43.19 C-0.29 29.73, -0.03 11.97, 0 0 M0 43.19 C-0.67 30.74, 0.42 17.3, 0 0" stroke="#e03131" stroke-width="1" fill="none"></path></g><g transform="translate(200.92689697923197 454.8403768690987) rotate(0 30.88799285888672 10)"><text x="30.88799285888672" y="14.016" font-family="Virgil, Segoe UI Emoji" font-size="16px" fill="#e03131" text-anchor="middle" style="white-space: pre;" direction="ltr" dominant-baseline="alphabetic">event 2</text></g><g stroke-linecap="round" transform="translate(370.2254152423229 438.55388288222457) rotate(0 38.59141308124708 22.703973998596666)"><path d="M0 0 C17.04 -0.17, 33.46 0.95, 77.18 0 M0 0 C24.7 0.72, 49.47 0.17, 77.18 0 M77.18 0 C75.7 16.69, 78.49 29.32, 77.18 45.41 M77.18 0 C76.67 12.35, 76.56 24.2, 77.18 45.41 M77.18 45.41 C52.88 43.76, 26.35 45.86, 0 45.41 M77.18 45.41 C58.12 44.62, 37.2 44.5, 0 45.41 M0 45.41 C0.12 26.43, 1.69 7.88, 0 0 M0 45.41 C0.03 28.11, -0.52 10.97, 0 0" stroke="#e03131" stroke-width="1" fill="none"></path></g><g transform="translate(378.5048394930018 451.2578568808203) rotate(0 30.311988830566406 10)"><text x="30.311988830566406" y="14.016" font-family="Virgil, Segoe UI Emoji" font-size="16px" fill="#e03131" text-anchor="middle" style="white-space: pre;" direction="ltr" dominant-baseline="alphabetic">event 4</text></g><g stroke-linecap="round" transform="translate(279.6984104469666 442.2637565676305) rotate(0 41.06163394002215 20.338073223896572)"><path d="M0 0 C19.24 -0.67, 38.63 -1.06, 82.12 0 M0 0 C32.36 0.04, 63.74 -0.18, 82.12 0 M82.12 0 C84.15 17.16, 81.52 33.74, 82.12 40.68 M82.12 0 C81.71 10.54, 82.84 22.82, 82.12 40.68 M82.12 40.68 C60.76 40.13, 41.8 40.98, 0 40.68 M82.12 40.68 C57.17 41.64, 31.17 40.53, 0 40.68 M0 40.68 C-2.01 28.9, -0.46 18.05, 0 0 M0 40.68 C-0.19 28.04, 0.41 14.3, 0 0" stroke="#e03131" stroke-width="1" fill="none"></path></g><g transform="translate(290.12005262673483 452.60182979152705) rotate(0 30.639991760253906 10)"><text x="30.639991760253906" y="14.016" font-family="Virgil, Segoe UI Emoji" font-size="16px" fill="#e03131" text-anchor="middle" style="white-space: pre;" direction="ltr" dominant-baseline="alphabetic">event 3</text></g><g stroke-linecap="round" transform="translate(480.3373045958724 423.06859850768524) rotate(0 179.94189613122035 41.93040554364961)"><path d="M0 0 C96.94 1.49, 193.3 0.43, 359.88 0 M0 0 C118.73 -2.09, 238.05 -2.46, 359.88 0 M359.88 0 C357.66 34.16, 361.12 67.86, 359.88 83.86 M359.88 0 C360.53 28, 360.75 55.66, 359.88 83.86 M359.88 83.86 C278.93 82.7, 199.99 82.48, 0 83.86 M359.88 83.86 C240.52 82.27, 121.52 82.28, 0 83.86 M0 83.86 C1.67 53.93, 1.35 21.66, 0 0 M0 83.86 C-1.02 52.1, -1.09 18.71, 0 0" stroke="#1971c2" stroke-width="1" fill="none"></path></g><g stroke-linecap="round" transform="translate(495.03567423296045 444.23068459672504) rotate(0 36.14798715232246 15)"><path d="M0 0 C19.96 -1.26, 37.19 0.74, 72.3 0 M0 0 C27.62 -0.65, 56.53 -0.24, 72.3 0 M72.3 0 C73.62 12.18, 72.54 23.41, 72.3 30 M72.3 0 C73.01 12.17, 71.64 22.93, 72.3 30 M72.3 30 C55.32 29.79, 37.27 31.34, 0 30 M72.3 30 C55.59 30.34, 40.44 30.04, 0 30 M0 30 C1.04 20.57, 1.45 13.32, 0 0 M0 30 C-0.47 20.79, 0.5 13.05, 0 0" stroke="#e03131" stroke-width="1" fill="none"></path></g><g transform="translate(501.0476750571579 449.23068459672504) rotate(0 30.135986328125 10)"><text x="30.135986328125" y="14.016" font-family="Virgil, Segoe UI Emoji" font-size="16px" fill="#e03131" text-anchor="middle" style="white-space: pre;" direction="ltr" dominant-baseline="alphabetic">event 5</text></g><g stroke-linecap="round" transform="translate(576.1982045234472 442.90619682637407) rotate(0 38.50972848710808 15)"><path d="M0 0 C20.85 -1.44, 37.78 -0.67, 77.02 0 M0 0 C17.32 -0.59, 33.36 1.14, 77.02 0 M77.02 0 C78.57 10.95, 78.41 21.55, 77.02 30 M77.02 0 C76.25 11.32, 76.83 24.23, 77.02 30 M77.02 30 C53.37 29.5, 33.09 29.63, 0 30 M77.02 30 C52.29 30.72, 28.1 30.57, 0 30 M0 30 C-0.55 20.68, 0.73 12.36, 0 0 M0 30 C-0.09 22.18, 0.26 16.56, 0 0" stroke="#e03131" stroke-width="1" fill="none"></path></g><g transform="translate(584.3959441799889 447.90619682637407) rotate(0 30.311988830566406 10)"><text x="30.311988830566406" y="14.016" font-family="Virgil, Segoe UI Emoji" font-size="16px" fill="#e03131" text-anchor="middle" style="white-space: pre;" direction="ltr" dominant-baseline="alphabetic">event 6</text></g><g stroke-linecap="round" transform="translate(753.1184584147632 438.21453783098696) rotate(0 38.59141308124708 22.703973998596666)"><path d="M0 0 C17.33 2.11, 37.2 1.71, 77.18 0 M0 0 C16.4 -0.36, 32.33 0.12, 77.18 0 M77.18 0 C79.42 13.84, 78.51 29.69, 77.18 45.41 M77.18 0 C77.08 11.28, 77.86 21.18, 77.18 45.41 M77.18 45.41 C58.32 46.42, 38.45 44.99, 0 45.41 M77.18 45.41 C47.61 46.75, 19.13 45.75, 0 45.41 M0 45.41 C-1.52 35.03, 0.13 23.35, 0 0 M0 45.41 C0.1 35.19, -0.01 24.17, 0 0" stroke="#e03131" stroke-width="1" fill="none"></path></g><g transform="translate(760.397882665442 450.9185118295827) rotate(0 31.311988830566406 10)"><text x="31.311988830566406" y="14.016" font-family="Virgil, Segoe UI Emoji" font-size="16px" fill="#e03131" text-anchor="middle" style="white-space: pre;" direction="ltr" dominant-baseline="alphabetic">event 8</text></g><g stroke-linecap="round" transform="translate(662.6776813597899 441.9244115163965) rotate(0 41.06163394002215 20.338073223896572)"><path d="M0 0 C30.99 -0.03, 67.29 0.13, 82.12 0 M0 0 C27.17 0.05, 54.16 0.36, 82.12 0 M82.12 0 C81.16 9.16, 83.17 17.89, 82.12 40.68 M82.12 0 C81.89 13.64, 81.95 27.11, 82.12 40.68 M82.12 40.68 C53.53 41.54, 23.02 40.09, 0 40.68 M82.12 40.68 C49.97 41.05, 18.32 39.91, 0 40.68 M0 40.68 C-1.61 27.86, 1.27 14.15, 0 0 M0 40.68 C0.55 28.95, -1.03 17.63, 0 0" stroke="#e03131" stroke-width="1" fill="none"></path></g><g transform="translate(674.2433283613354 452.2624847402931) rotate(0 29.495986938476562 10)"><text x="29.495986938476562" y="14.016" font-family="Virgil, Segoe UI Emoji" font-size="16px" fill="#e03131" text-anchor="middle" style="white-space: pre;" direction="ltr" dominant-baseline="alphabetic">event 7</text></g><g stroke-linecap="round" transform="translate(870.9044639154927 422.1423456835146) rotate(0 179.94189613122035 41.93040554364961)"><path d="M0 0 C81.48 0.92, 161.6 1.86, 359.88 0 M0 0 C107.41 0.7, 216.03 0.9, 359.88 0 M359.88 0 C358.19 17.59, 361.08 36.21, 359.88 83.86 M359.88 0 C361.12 25.71, 360.54 49.88, 359.88 83.86 M359.88 83.86 C254.39 84.68, 147.49 84.24, 0 83.86 M359.88 83.86 C237.54 81.7, 113.97 82.46, 0 83.86 M0 83.86 C0.06 58.58, -0.95 33.15, 0 0 M0 83.86 C-1.28 59.37, -1.22 33.67, 0 0" stroke="#1971c2" stroke-width="1" fill="none"></path></g><g stroke-linecap="round" transform="translate(885.6028335525807 443.3044317725544) rotate(0 36.3287872531364 19.283935274247597)"><path d="M0 0 C20.53 1.61, 38.59 -0.02, 72.66 0 M0 0 C21 0.49, 40.94 -0.31, 72.66 0 M72.66 0 C73.34 11.06, 72.35 22.37, 72.66 38.57 M72.66 0 C72.66 12.25, 72.78 25.45, 72.66 38.57 M72.66 38.57 C48.47 37.02, 22.16 39.42, 0 38.57 M72.66 38.57 C55.66 38.18, 39.13 36.94, 0 38.57 M0 38.57 C-1.61 23.27, 0.17 8.81, 0 0 M0 38.57 C-0.47 24.14, 1.13 8.97, 0 0" stroke="#e03131" stroke-width="1" fill="none"></path></g><g transform="translate(891.8676330737835 452.58836704680107) rotate(0 30.063987731933594 10)"><text x="30.063987731933594" y="14.016" font-family="Virgil, Segoe UI Emoji" font-size="16px" fill="#e03131" text-anchor="middle" style="white-space: pre;" direction="ltr" dominant-baseline="alphabetic">event 9</text></g><g stroke-linecap="round" transform="translate(966.7653638430675 441.89093472179775) rotate(0 38.50972848710808 21.594834991488824)"><path d="M0 0 C29.37 -1.85, 60.58 0.14, 77.02 0 M0 0 C30.3 -1.06, 61.25 0.38, 77.02 0 M77.02 0 C77.81 15.63, 77.73 29.26, 77.02 43.19 M77.02 0 C77.54 10.31, 76.69 19.5, 77.02 43.19 M77.02 43.19 C57.63 45.33, 39.15 43.17, 0 43.19 M77.02 43.19 C52.73 42.08, 26.53 41.57, 0 43.19 M0 43.19 C1.66 28.34, 1.56 15.33, 0 0 M0 43.19 C-0.01 29.26, -0.51 14.46, 0 0" stroke="#e03131" stroke-width="1" fill="none"></path></g><g transform="translate(972.4111015464841 453.4857697132866) rotate(0 32.863990783691406 10)"><text x="32.863990783691406" y="14.016" font-family="Virgil, Segoe UI Emoji" font-size="16px" fill="#e03131" text-anchor="middle" style="white-space: pre;" direction="ltr" dominant-baseline="alphabetic">event 10</text></g><g stroke-linecap="round" transform="translate(1143.6856177343907 437.20483880644133) rotate(0 38.59141308124708 22.703973998596666)"><path d="M0 0 C18.06 -1.85, 32.57 -0.77, 77.18 0 M0 0 C16.46 -0.38, 33.05 -0.01, 77.18 0 M77.18 0 C75.69 15.46, 75.92 32.13, 77.18 45.41 M77.18 0 C76.38 18.25, 77.58 34.98, 77.18 45.41 M77.18 45.41 C47.92 45.3, 15.6 47.21, 0 45.41 M77.18 45.41 C56.93 44.75, 37.1 45.57, 0 45.41 M0 45.41 C0.37 37.28, -0.4 26.63, 0 0 M0 45.41 C0.45 28.19, -0.53 12.03, 0 0" stroke="#e03131" stroke-width="1" fill="none"></path></g><g transform="translate(1149.221038689171 449.9088128050389) rotate(0 33.055992126464844 10)"><text x="33.055992126464844" y="14.016" font-family="Virgil, Segoe UI Emoji" font-size="16px" fill="#e03131" text-anchor="middle" style="white-space: pre;" direction="ltr" dominant-baseline="alphabetic">event 12</text></g><g stroke-linecap="round" transform="translate(1053.1586129390234 440.99815869222584) rotate(0 41.06163394002215 20.338073223896572)"><path d="M0 0 C15.47 0.2, 35.68 1.14, 82.12 0 M0 0 C25.25 0.03, 49.5 -1.15, 82.12 0 M82.12 0 C83.69 11.43, 83.31 22.79, 82.12 40.68 M82.12 0 C83.21 12.96, 82.12 28.06, 82.12 40.68 M82.12 40.68 C56.51 41.6, 30.63 41.57, 0 40.68 M82.12 40.68 C56.51 42.15, 31.81 41.72, 0 40.68 M0 40.68 C1.19 24.9, 0.64 10.52, 0 0 M0 40.68 C0.37 32.31, 1.16 24.51, 0 0" stroke="#e03131" stroke-width="1" fill="none"></path></g><g transform="translate(1064.6922546305104 451.3362319161224) rotate(0 29.527992248535156 10)"><text x="29.527992248535156" y="14.016" font-family="Virgil, Segoe UI Emoji" font-size="16px" fill="#e03131" text-anchor="middle" style="white-space: pre;" direction="ltr" dominant-baseline="alphabetic">event 11</text></g><g transform="translate(187.5703832973959 520.3377426006573) rotate(0 96.19121671337052 10)"><text x="96.19121671337052" y="14.016" font-family="Virgil, Segoe UI Emoji" font-size="16px" fill="#1971c2" text-anchor="middle" style="white-space: pre;" direction="ltr" dominant-baseline="alphabetic">Page 1</text></g><g transform="translate(566.1685759430984 515.6727363446935) rotate(0 96.19121671337052 10)"><text x="96.19121671337052" y="14.016" font-family="Virgil, Segoe UI Emoji" font-size="16px" fill="#1971c2" text-anchor="middle" style="white-space: pre;" direction="ltr" dominant-baseline="alphabetic">Page 2</text></g><g transform="translate(989.6385720709586 518.5043440774498) rotate(0 96.19121671337052 10)"><text x="96.19121671337052" y="14.016" font-family="Virgil, Segoe UI Emoji" font-size="16px" fill="#1971c2" text-anchor="middle" style="white-space: pre;" direction="ltr" dominant-baseline="alphabetic">Page 3</text></g><g stroke-linecap="round" transform="translate(75.96387183457409 297.322209015907) rotate(0 604.506527843485 146.51066631007416)"><path d="M0 0 C327.65 1.15, 655.69 1.72, 1209.01 0 M0 0 C343.61 -3.3, 687.33 -3.36, 1209.01 0 M1209.01 0 C1208.46 102.83, 1207.25 206.84, 1209.01 293.02 M1209.01 0 C1207.46 90.45, 1207.6 181.13, 1209.01 293.02 M1209.01 293.02 C931.42 292.92, 653.3 293.47, 0 293.02 M1209.01 293.02 C849.68 290.01, 491.19 289.6, 0 293.02 M0 293.02 C0.3 195.56, 0.24 98.22, 0 0 M0 293.02 C-0.29 202.47, 0.32 111.1, 0 0" stroke="#1971c2" stroke-width="1" fill="none"></path></g><g transform="translate(-61.652494708407175 435.4826192376531) rotate(91.02705091951513 91.3434739682416 18.056597699629492)"><text x="91.34347396824165" y="25.30812733580125" font-family="Virgil, Segoe UI Emoji" font-size="28.890556319407818px" fill="#1971c2" text-anchor="middle" style="white-space: pre;" direction="ltr" dominant-baseline="alphabetic">events table</text></g><g transform="translate(93.43152906106116 389.9218531018323) rotate(0 29.175987243652344 10)"><text x="29.175987243652344" y="14.016" font-family="Virgil, Segoe UI Emoji" font-size="16px" fill="#f08c00" text-anchor="middle" style="white-space: pre;" direction="ltr" dominant-baseline="alphabetic">1st Jan</text></g><g transform="translate(390.35896037831117 382.22279116346) rotate(0 31.583984375 10)"><text x="31.583984375" y="14.016" font-family="Virgil, Segoe UI Emoji" font-size="16px" fill="#f08c00" text-anchor="middle" style="white-space: pre;" direction="ltr" dominant-baseline="alphabetic">3rd Jan</text></g><g transform="translate(480.4874041378098 381.4550861200023) rotate(0 31.735984802246094 10)"><text x="31.735984802246094" y="14.016" font-family="Virgil, Segoe UI Emoji" font-size="16px" fill="#f08c00" text-anchor="middle" style="white-space: pre;" direction="ltr" dominant-baseline="alphabetic">4th Jan</text></g><g transform="translate(770.5913453223257 378.5539398869314) rotate(0 31.48798370361328 10)"><text x="31.48798370361328" y="14.016" font-family="Virgil, Segoe UI Emoji" font-size="16px" fill="#f08c00" text-anchor="middle" style="white-space: pre;" direction="ltr" dominant-baseline="alphabetic">9th Jan</text></g><g transform="translate(866.0408985932154 377.769545603398) rotate(0 34.287986755371094 10)"><text x="34.287986755371094" y="14.016" font-family="Virgil, Segoe UI Emoji" font-size="16px" fill="#f08c00" text-anchor="middle" style="white-space: pre;" direction="ltr" dominant-baseline="alphabetic">10th Jan</text></g><g transform="translate(1145.9267921321589 379.800069812547) rotate(0 37.81598663330078 10)"><text x="37.81598663330078" y="14.016" font-family="Virgil, Segoe UI Emoji" font-size="16px" fill="#f08c00" text-anchor="middle" style="white-space: pre;" direction="ltr" dominant-baseline="alphabetic">20th Jan</text></g><g stroke-linecap="round" transform="translate(489.4595000893423 52.312932433012975) rotate(0 204.38455137181882 96.75845367851889)"><path d="M0 0 C101.19 -0.35, 201.58 0.05, 408.77 0 M0 0 C97.12 -1.13, 195.02 -0.77, 408.77 0 M408.77 0 C411.02 67.93, 408.97 134.77, 408.77 193.52 M408.77 0 C408.03 49.02, 408.54 96.99, 408.77 193.52 M408.77 193.52 C254.39 190.94, 98.1 191.89, 0 193.52 M408.77 193.52 C276.4 193.52, 143.02 192.9, 0 193.52 M0 193.52 C-0.71 144.09, 0.56 97.44, 0 0 M0 193.52 C0.24 117.74, 0.67 40.74, 0 0" stroke="#f08c00" stroke-width="1" fill="none"></path></g><g stroke-linecap="round"><g transform="translate(683.1789195167439 51.48474874227395) rotate(0 0.859412998524931 94.05627769487)"><path d="M0 0 C0.72 71.98, 0.01 142.14, 1.99 188.11 M0 0 C-0.64 73.3, -0.25 144.45, 1.99 188.11" stroke="#f08c00" stroke-width="1" fill="none"></path></g></g><mask></mask><g stroke-linecap="round"><g transform="translate(492.0679764583474 109.43342654823937) rotate(0 203.3417653378583 0.7003925537856048)"><path d="M0 0 C148.53 1.73, 295.9 1.65, 406.68 0.16 M0 0 C133.75 2.19, 266.62 1.47, 406.68 0.16" stroke="#f08c00" stroke-width="1" fill="none"></path></g></g><mask></mask><g transform="translate(543.6307086390989 76.39675596513916) rotate(0 49.64796447753906 10)"><text x="49.64796447753906" y="14.016" font-family="Virgil, Segoe UI Emoji" font-size="16px" fill="#f08c00" text-anchor="middle" style="white-space: pre;" direction="ltr" dominant-baseline="alphabetic">Page Number</text></g><g transform="translate(758.0203026025192 77.00294782937453) rotate(0 47.35198211669922 10)"><text x="47.35198211669922" y="14.016" font-family="Virgil, Segoe UI Emoji" font-size="16px" fill="#f08c00" text-anchor="middle" style="white-space: pre;" direction="ltr" dominant-baseline="alphabetic">Date Range</text></g><g transform="translate(550.9858820749905 126.837374326602) rotate(0 25.175987243652344 10)"><text x="25.175987243652344" y="14.016" font-family="Virgil, Segoe UI Emoji" font-size="16px" fill="#f08c00" text-anchor="middle" style="white-space: pre;" direction="ltr" dominant-baseline="alphabetic">Page 1</text></g><g transform="translate(722.8483886536669 122.22359088461599) rotate(0 77.71196746826172 10)"><text x="77.71196746826172" y="14.016" font-family="Virgil, Segoe UI Emoji" font-size="16px" fill="#f08c00" text-anchor="middle" style="white-space: pre;" direction="ltr" dominant-baseline="alphabetic">1st Jan to 3rd Jan</text></g><g transform="translate(548.9933468499585 167.13593198198942) rotate(0 28.70398712158203 10)"><text x="28.70398712158203" y="14.016" font-family="Virgil, Segoe UI Emoji" font-size="16px" fill="#f08c00" text-anchor="middle" style="white-space: pre;" direction="ltr" dominant-baseline="alphabetic">Page 2</text></g><g transform="translate(551.2392655382973 208.7597188621221) rotate(0 28.45598602294922 10)"><text x="28.45598602294922" y="14.016" font-family="Virgil, Segoe UI Emoji" font-size="16px" fill="#f08c00" text-anchor="middle" style="white-space: pre;" direction="ltr" dominant-baseline="alphabetic">Page 3</text></g><g transform="translate(721.907766146509 162.74414036650342) rotate(0 80.17596435546875 10)"><text x="80.17596435546875" y="14.016" font-family="Virgil, Segoe UI Emoji" font-size="16px" fill="#f08c00" text-anchor="middle" style="white-space: pre;" direction="ltr" dominant-baseline="alphabetic">4th Jan to 9th Jan</text></g><g transform="translate(715.9536072952105 199.71317219650155) rotate(0 89.05596923828125 10)"><text x="89.05596923828125" y="14.016" font-family="Virgil, Segoe UI Emoji" font-size="16px" fill="#f08c00" text-anchor="middle" style="white-space: pre;" direction="ltr" dominant-baseline="alphabetic">10th Jan to 20th Jan</text></g><g transform="translate(622.3370906512137 10) rotate(0 50.679954528808594 10)"><text x="50.679954528808594" y="14.016" font-family="Virgil, Segoe UI Emoji" font-size="16px" fill="#f08c00" text-anchor="middle" style="white-space: pre;" direction="ltr" dominant-baseline="alphabetic">BRIN INDEX</text></g></svg>